<?xml version="1.0" encoding="UTF-8" standalone="no"?>
<svg
   xmlns:dc="http://purl.org/dc/elements/1.1/"
   xmlns:cc="http://creativecommons.org/ns#"
   xmlns:rdf="http://www.w3.org/1999/02/22-rdf-syntax-ns#"
   xmlns:svg="http://www.w3.org/2000/svg"
   xmlns="http://www.w3.org/2000/svg"
   xmlns:xlink="http://www.w3.org/1999/xlink"
   xmlns:sodipodi="http://sodipodi.sourceforge.net/DTD/sodipodi-0.dtd"
   xmlns:inkscape="http://www.inkscape.org/namespaces/inkscape"
   id="svg2"
   height="64"
   version="1.1"
   width="64"
   sodipodi:docname="folder-unlocked.svg"
   inkscape:version="0.92.4 (5da689c313, 2019-01-14)">
  <sodipodi:namedview
     pagecolor="#ffffff"
     bordercolor="#666666"
     borderopacity="1"
     objecttolerance="10"
     gridtolerance="10"
     guidetolerance="10"
     inkscape:pageopacity="0"
     inkscape:pageshadow="2"
     inkscape:window-width="1920"
     inkscape:window-height="1028"
     id="namedview18"
     showgrid="false"
     inkscape:zoom="3.6875"
     inkscape:cx="32"
     inkscape:cy="32"
     inkscape:window-x="0"
     inkscape:window-y="0"
     inkscape:window-maximized="1"
     inkscape:current-layer="svg2" />
  <defs
     id="defs5455">
    <linearGradient
       inkscape:collect="always"
       id="linearGradient856">
      <stop
         style="stop-color:#0569ff;stop-opacity:1"
         offset="0"
         id="stop852" />
      <stop
         id="stop860"
         offset="0.48180258"
         style="stop-color:#9f4585;stop-opacity:1" />
      <stop
         style="stop-color:#ffff00;stop-opacity:1"
         offset="1"
         id="stop854" />
    </linearGradient>
    <linearGradient
       inkscape:collect="always"
       id="linearGradient840">
      <stop
         style="stop-color:#2b2964;stop-opacity:1"
         offset="0"
         id="stop836" />
      <stop
         style="stop-color:#9f4585;stop-opacity:1"
         offset="1"
         id="stop838" />
    </linearGradient>
    <linearGradient
       gradientTransform="matrix(1,0,0,0.99967455,-127.72881,9.1256025)"
       x2="0"
       gradientUnits="userSpaceOnUse"
       y2="499.78421"
       y1="541.79797"
       xlink:href="#linearGradient4172-5"
       id="linearGradient4178" />
    <linearGradient
       id="linearGradient4172-5">
      <stop
         id="stop4174-6"
         style="stop-color:#3daee9" />
      <stop
         id="stop4176-6"
         style="stop-color:#6cc1ef"
         offset="1" />
    </linearGradient>
    <linearGradient
       inkscape:collect="always"
       xlink:href="#linearGradient840"
       id="linearGradient842"
       x1="260.38498"
       y1="508.86591"
       x2="317.84262"
       y2="550.74725"
       gradientUnits="userSpaceOnUse"
       gradientTransform="translate(127.72881,-8.94915)" />
    <linearGradient
       inkscape:collect="always"
       xlink:href="#linearGradient856"
       id="linearGradient858"
       x1="386.67313"
       y1="457.15396"
       x2="442.13077"
       y2="430.03531"
       gradientUnits="userSpaceOnUse"
       gradientTransform="translate(1.89831,59.93231)" />
  </defs>
  <metadata
     id="metadata5458">
    <rdf:RDF>
      <cc:Work
         rdf:about="">
        <dc:format>image/svg+xml</dc:format>
        <dc:type
           rdf:resource="http://purl.org/dc/dcmitype/StillImage" />
        <dc:title />
      </cc:Work>
    </rdf:RDF>
  </metadata>
  <g
     transform="matrix(1 0 0 1 -384.57143 -483.798)"
     id="layer1">
    <g
       transform="matrix(1 0 0 1 0 0.000005)"
       id="layer1-1">
      <path
         d="m 388.57143,489.79823 v 5 22 c 0,0.55373 0.446,1 1,1 h 54 c 0.55399,0 1,-0.44627 1,-1 V 494.808 c 0,-0.003 -0.002,-0.006 -0.002,-0.01 h 0.002 v -1 h -28 l -4,-4 h -24 z"
         id="rect4180"
         style="fill:url(#linearGradient858);fill-opacity:1"
         inkscape:connector-curvature="0" />
      <path
         d="m 410.57143,499.79812 -4,4 h -19 v 1 h 0.002 c -5e-5,0.004 -0.002,0.008 -0.002,0.0117 v 35.98828 1 h 1 56 1 v -1 -35.98828 -0.0117 -5 z"
         id="rect4113"
         style="fill:url(#linearGradient842);fill-opacity:1"
         inkscape:connector-curvature="0" />
      <path
         d="m 387.57144,503.79812 0,1 19.99999,0 3,-5 -4,4 z"
         id="path4224"
         style="fill:#ffffff;fill-opacity:0.235294;fill-rule:evenodd" />
      <path
         d="m 388.57143,502.79812 0,1 18,0 4,-4 -6,3 z"
         id="path4228"
         style="fill-opacity:0.235294;fill-rule:evenodd" />
      <path
         d="m 387.57143,540.7981 0,1 1,0 56,0 1,0 0,-1 -1,0 -56,0 -1,0 z"
         id="path4151-2"
         style="fill-opacity:0.235294" />
      <path
         transform="matrix(1 0 0 1 384.57143 483.798)"
         d="m 28,6 3,5 2,0 27,0 0,-1 -27,0 -1,0 z"
         id="path4196"
         style="fill:#ffffff;fill-opacity:0.235294;fill-rule:evenodd" />
    </g>
    <path
       id="rect4136"
       d="m 417.1138,512.69631 c -2.77,0 -5,2.23 -5,5 v 1 h 1 v -1 c 0,-2.42375 1.92251,-4 4,-4 2.0775,0 4,1.57625 4,4 v 5 h -8 -1 -3 v 1 9 h 1.75 12.5 1.75 v -10 h -1.75 -1.25 v -5 c 0,-2.77 -2.23,-5 -5,-5 z m -7,11 h 14 v 8 h -14 z"
       style="fill:#1e001e;fill-opacity:1"
       inkscape:connector-curvature="0" />
  </g>
</svg>
