<?xml version="1.0" encoding="UTF-8" standalone="no"?>
<svg
   xmlns:dc="http://purl.org/dc/elements/1.1/"
   xmlns:cc="http://creativecommons.org/ns#"
   xmlns:rdf="http://www.w3.org/1999/02/22-rdf-syntax-ns#"
   xmlns:svg="http://www.w3.org/2000/svg"
   xmlns="http://www.w3.org/2000/svg"
   xmlns:xlink="http://www.w3.org/1999/xlink"
   xmlns:sodipodi="http://sodipodi.sourceforge.net/DTD/sodipodi-0.dtd"
   xmlns:inkscape="http://www.inkscape.org/namespaces/inkscape"
   viewBox="0 0 30.00001 30.000027"
   version="1.1"
   id="svg6"
   sodipodi:docname="system-lock-screen.svg"
   inkscape:version="0.92.4 (5da689c313, 2019-01-14)"
   width="30.00001"
   height="30.000027">
  <metadata
     id="metadata10">
    <rdf:RDF>
      <cc:Work
         rdf:about="">
        <dc:format>image/svg+xml</dc:format>
        <dc:type
           rdf:resource="http://purl.org/dc/dcmitype/StillImage" />
      </cc:Work>
    </rdf:RDF>
  </metadata>
  <sodipodi:namedview
     pagecolor="#ffffff"
     bordercolor="#666666"
     borderopacity="1"
     objecttolerance="10"
     gridtolerance="10"
     guidetolerance="10"
     inkscape:pageopacity="0"
     inkscape:pageshadow="2"
     inkscape:window-width="1920"
     inkscape:window-height="1028"
     id="namedview8"
     showgrid="false"
     inkscape:zoom="15.198362"
     inkscape:cx="-3.1470048"
     inkscape:cy="11.602175"
     inkscape:window-x="0"
     inkscape:window-y="0"
     inkscape:window-maximized="1"
     inkscape:current-layer="svg6" />
  <defs
     id="defs3051">
    <linearGradient
       inkscape:collect="always"
       id="linearGradient820">
      <stop
         style="stop-color:#ffff00;stop-opacity:1"
         offset="0"
         id="stop816" />
      <stop
         id="stop817"
         offset="0.50895536"
         style="stop-color:#00ffff;stop-opacity:1" />
      <stop
         style="stop-color:#ff00ff;stop-opacity:1"
         offset="1"
         id="stop818" />
    </linearGradient>
    <style
       type="text/css"
       id="current-color-scheme">
      .ColorScheme-Text {
        color:#eff0f1;
      }
      </style>
    <linearGradient
       inkscape:collect="always"
       xlink:href="#linearGradient820"
       id="linearGradient822"
       x1="8.4741659"
       y1="8.4333954"
       x2="23.525833"
       y2="23.632402"
       gradientUnits="userSpaceOnUse"
       gradientTransform="translate(-0.9885596,-0.9769733)" />
  </defs>
  <path
     style="color:#eff0f1;opacity:0.9;fill:url(#linearGradient822);fill-opacity:1;stroke:none"
     d="m 15.01144,3.0230267 c -6.6274166,0 -11.9999996,5.372583 -11.9999996,12.0000003 0,6.627417 5.372583,12 11.9999996,12 6.627417,0 12,-5.372583 12,-12 0,-6.6274173 -5.372583,-12.0000003 -12,-12.0000003 z m 0,1.4 c 6.075132,0 10.6,4.524868 10.6,10.6000003 0,6.075132 -4.524868,10.6 -10.6,10.6 -6.0751316,0 -10.5999996,-4.524868 -10.5999996,-10.6 0,-6.0751323 4.524868,-10.6000003 10.5999996,-10.6000003 z m 0,2.4 c -2.216,0 -4.310662,1.9867648 -4.2,4.2000003 v 4 H 8.8114404 v 1 7.2 h 1.1999996 10 1.2 v -8.2 h -1.2 -0.8 v -4 c 0,-2.2160003 -1.984,-4.2000003 -4.2,-4.2000003 z m 0,1.4 c 1.662,0 2.68938,1.364158 2.8,3.3000003 v 3.5 h -5.6 v -3.5 c 0,-1.9390003 1.138,-3.3000003 2.8,-3.3000003 z m -4.8,8.1000003 h 9.6 v 5.5 h -9.6 z"
     class="ColorScheme-Text"
     id="path4"
     inkscape:connector-curvature="0"
     sodipodi:nodetypes="ssssssssssssccccccccccssssccssccccc" />
  <rect
     ry="15.000005"
     y="0"
     x="0"
     height="30.000027"
     width="30.00001"
     id="rect4130"
     style="opacity:0.25;fill:#c896b0;fill-opacity:1;stroke:none" />
</svg>
