<?xml version="1.0" encoding="UTF-8" standalone="no"?>
<svg
   xmlns:dc="http://purl.org/dc/elements/1.1/"
   xmlns:cc="http://creativecommons.org/ns#"
   xmlns:rdf="http://www.w3.org/1999/02/22-rdf-syntax-ns#"
   xmlns:svg="http://www.w3.org/2000/svg"
   xmlns="http://www.w3.org/2000/svg"
   xmlns:xlink="http://www.w3.org/1999/xlink"
   xmlns:sodipodi="http://sodipodi.sourceforge.net/DTD/sodipodi-0.dtd"
   xmlns:inkscape="http://www.inkscape.org/namespaces/inkscape"
   viewBox="0 0 29.999974 30"
   version="1.1"
   id="svg5"
   sodipodi:docname="system-suspend.svg"
   inkscape:version="0.92.4 (5da689c313, 2019-01-14)"
   width="29.999973"
   height="30">
  <metadata
     id="metadata9">
    <rdf:RDF>
      <cc:Work
         rdf:about="">
        <dc:format>image/svg+xml</dc:format>
        <dc:type
           rdf:resource="http://purl.org/dc/dcmitype/StillImage" />
      </cc:Work>
    </rdf:RDF>
  </metadata>
  <sodipodi:namedview
     pagecolor="#ffffff"
     bordercolor="#666666"
     borderopacity="1"
     objecttolerance="10"
     gridtolerance="10"
     guidetolerance="10"
     inkscape:pageopacity="0"
     inkscape:pageshadow="2"
     inkscape:window-width="1920"
     inkscape:window-height="1028"
     id="namedview7"
     showgrid="false"
     inkscape:zoom="15.198362"
     inkscape:cx="-6.487409"
     inkscape:cy="9.2628004"
     inkscape:window-x="0"
     inkscape:window-y="0"
     inkscape:window-maximized="1"
     inkscape:current-layer="svg5" />
  <defs
     id="defs3051">
    <linearGradient
       inkscape:collect="always"
       id="linearGradient820">
      <stop
         style="stop-color:#ff00ff;stop-opacity:1"
         offset="0"
         id="stop816" />
      <stop
         id="stop817"
         offset="0.48267454"
         style="stop-color:#00ffff;stop-opacity:1" />
      <stop
         style="stop-color:#ffff00;stop-opacity:1"
         offset="1"
         id="stop818" />
    </linearGradient>
    <style
       type="text/css"
       id="current-color-scheme">
      .ColorScheme-Text {
        color:#eff0f1;
      }
      </style>
    <linearGradient
       inkscape:collect="always"
       xlink:href="#linearGradient820"
       id="linearGradient822"
       x1="7.8162007"
       y1="8.4333935"
       x2="23.986408"
       y2="24.290363"
       gradientUnits="userSpaceOnUse"
       gradientTransform="translate(-2.0413052,0.10709365)" />
  </defs>
  <path
     style="color:#eff0f1;fill:url(#linearGradient822);fill-opacity:1;stroke:none"
     id="path902-3"
     d="m 8.1747538,4.1070896 c -3.854409,2.347104 -6.209497,6.5321544 -6.216059,11.0459444 0,7.15433 5.798203,12.95406 12.9506402,12.95406 4.51527,-0.004 8.702067,-2.3616 11.049359,-6.21981 l -0.790448,-0.79065 c -1.804349,1.05104 -3.85353,1.40687 -5.941551,1.41246 -6.377589,0.178816 -11.1812192,-4.625169 -11.6720002,-11.67408 0.0033,-2.0896204 0.558052,-4.1412904 1.608,-5.9478204 z m -0.906384,1.817444 c -0.647223,1.55661 -1.184348,3.22463 -1.192675,4.9104804 0,7.305313 5.9980812,13.352636 13.1505212,13.15408 1.70769,-0.004 3.397587,-0.54726 4.972421,-1.20784 l -0.617942,0.13915 c -2.253059,2.60601 -5.226947,3.80424 -8.67136,3.80669 -6.0734342,-0.193189 -11.0793028,-5.172805 -11.4716402,-11.574 0.0047,-3.44701 1.507748,-6.7217504 4.117,-8.9734404 z m 14.8570002,1.99512 h 1.833332 v 0.93752 h -3.666666 l 1.833334,-2.81256 h -1.833331 v -0.93752 h 3.66666 z m -2.188636,6.2499204 h 1.833331 v 0.93752 h -3.666666 l 1.833335,-2.81258 h -1.833332 v -0.93753 h 3.666659 z m -5.1447,-4.00001 h 1.833331 v 0.93753 h -3.666666 l 1.833335,-2.8125704 h -1.833332 v -0.93753 h 3.66666 z"
     class="ColorScheme-Text"
     inkscape:connector-curvature="0"
     sodipodi:nodetypes="ccccccccccccccccccccccccccccccccccccccccccccc" />
  <rect
     ry="14.999991"
     y="0"
     x="0"
     height="30"
     width="29.999973"
     id="rect4130"
     style="opacity:0.25;fill:#c896b0;fill-opacity:1;stroke:none;stroke-width:0.99999893" />
</svg>
