<?xml version="1.0" encoding="UTF-8" standalone="no"?>
<svg
   xmlns:dc="http://purl.org/dc/elements/1.1/"
   xmlns:cc="http://creativecommons.org/ns#"
   xmlns:rdf="http://www.w3.org/1999/02/22-rdf-syntax-ns#"
   xmlns:svg="http://www.w3.org/2000/svg"
   xmlns="http://www.w3.org/2000/svg"
   xmlns:xlink="http://www.w3.org/1999/xlink"
   xmlns:sodipodi="http://sodipodi.sourceforge.net/DTD/sodipodi-0.dtd"
   xmlns:inkscape="http://www.inkscape.org/namespaces/inkscape"
   viewBox="0 0 30.00001 30.000027"
   version="1.1"
   id="svg6"
   sodipodi:docname="system-users.svg"
   inkscape:version="0.92.4 (5da689c313, 2019-01-14)"
   width="30.00001"
   height="30.000027">
  <metadata
     id="metadata10">
    <rdf:RDF>
      <cc:Work
         rdf:about="">
        <dc:format>image/svg+xml</dc:format>
        <dc:type
           rdf:resource="http://purl.org/dc/dcmitype/StillImage" />
      </cc:Work>
    </rdf:RDF>
  </metadata>
  <sodipodi:namedview
     pagecolor="#ffffff"
     bordercolor="#666666"
     borderopacity="1"
     objecttolerance="10"
     gridtolerance="10"
     guidetolerance="10"
     inkscape:pageopacity="0"
     inkscape:pageshadow="2"
     inkscape:window-width="1920"
     inkscape:window-height="1030"
     id="namedview8"
     showgrid="false"
     inkscape:zoom="20.799805"
     inkscape:cx="-1.0728617"
     inkscape:cy="16.288337"
     inkscape:window-x="0"
     inkscape:window-y="0"
     inkscape:window-maximized="1"
     inkscape:current-layer="svg6" />
  <defs
     id="defs3051">
    <linearGradient
       inkscape:collect="always"
       id="linearGradient820">
      <stop
         style="stop-color:#ff00ff;stop-opacity:1"
         offset="0"
         id="stop816" />
      <stop
         id="stop817"
         offset="0.52964228"
         style="stop-color:#00ffff;stop-opacity:1" />
      <stop
         style="stop-color:#ffff00;stop-opacity:1"
         offset="1"
         id="stop818" />
    </linearGradient>
    <style
       type="text/css"
       id="current-color-scheme">
      .ColorScheme-Text {
        color:#eff0f1;
      }
      </style>
    <linearGradient
       inkscape:collect="always"
       xlink:href="#linearGradient820"
       id="linearGradient822"
       x1="9.913517"
       y1="10.134561"
       x2="23.048031"
       y2="24.22123"
       gradientUnits="userSpaceOnUse"
       gradientTransform="translate(0.52871454,-2.2883103)" />
  </defs>
  <path
     style="color:#eff0f1;fill:url(#linearGradient822);fill-opacity:1;stroke:none"
     d="m 21.028715,1.7116897 a 4.5,4.5 0 0 0 -4.5,4.5 4.5,4.5 0 0 0 4.5,4.5000003 4.5,4.5 0 0 0 4.5,-4.5000003 4.5,4.5 0 0 0 -4.5,-4.5 z m 0,1 a 3.5,3.5 0 0 1 3.5,3.5 3.5,3.5 0 0 1 -3.5,3.5 3.5,3.5 0 0 1 -3.5,-3.5 3.5,3.5 0 0 1 3.5,-3.5 z m -9,4 c -2.4852815,0 -4.5000005,2.01472 -4.5000005,4.5000003 0,2.48528 2.014719,4.5 4.5000005,4.5 2.485281,0 4.5,-2.01472 4.5,-4.5 0,-2.4852803 -2.014719,-4.5000003 -4.5,-4.5000003 z m 0,1 a 3.5,3.5 0 0 1 3.5,3.5000003 3.5,3.5 0 0 1 -3.5,3.5 3.5,3.5 0 0 1 -3.5000005,-3.5 3.5,3.5 0 0 1 3.5000005,-3.5000003 z m 9,4.0000003 c -0.88285,0.003 -1.758266,0.17228 -2.585938,0.5 -0.06618,0.42368 -0.174132,0.83977 -0.322265,1.24219 0.90271,-0.48731 1.89843,-0.74142 2.908203,-0.74219 3.589851,0 6.5,3.13401 6.5,7 h -8.341797 c 0.170323,0.32329 0.325499,0.65711 0.464844,1 h 8.876953 v -1 c 0,-4.41828 -3.357864,-8 -7.5,-8 z m -9,5 c -4.1421365,0 -7.5000005,3.58172 -7.5000005,8 v 1 H 19.528715 v -1 c 0,-4.41828 -3.357864,-8 -7.5,-8 z m 0,1 c 3.589851,0 6.5,3.13401 6.5,7 H 5.5287145 c 0,-3.86599 2.910149,-7 6.5000005,-7 z"
     class="ColorScheme-Text"
     id="path4"
     inkscape:connector-curvature="0" />
  <rect
     ry="15.000005"
     y="0"
     x="0"
     height="30.000027"
     width="30.00001"
     id="rect4130"
     style="opacity:0.25000001;fill:#c896b0;fill-opacity:1;stroke:none" />
</svg>
